<svg width="28" height="28" viewBox="0 0 56 56" fill="none" xmlns="http://www.w3.org/2000/svg">
  <path fill-rule="evenodd" clip-rule="evenodd" d="M56,28Q56,16.402 47.799,8.201Q39.598,0 28,0Q16.402,0 8.201,8.201Q0,16.402 0,28Q0,39.598 8.201,47.799Q16.402,56 28,56Q39.598,56 47.799,47.799Q56,39.598 56,28ZM11.0294,11.0294Q18.0589,4 28,4Q37.9411,4 44.9706,11.0294Q52,18.0589 52,28Q52,37.9411 44.9706,44.9706Q37.9411,52 28,52Q18.0589,52 11.0294,44.9706Q4,37.9411 4,28Q4,18.0589 11.0294,11.0294Z" fill="#000000" fill-opacity="0.55"/>
  <path fill-rule="evenodd" clip-rule="evenodd" d="M28.1966,11.1466C32.4037,11.1466 35.8142,14.7262 35.8142,19.142L35.8142,29.4586C35.7872,33.8541 32.3846,37.4023 28.1966,37.4023L27.8034,37.4023C23.5963,37.4023 20.1858,33.8226 20.1858,29.407L20.1858,19.0904C20.2128,14.6948 23.6154,11.1466 27.8034,11.1466L28.1966,11.1466ZM28.1966,15.2496L27.8034,15.2496C25.9145,15.2496 24.3252,16.8433 24.2127,18.8848L24.2064,19.0904L24.2064,29.407C24.2064,31.5119 25.7387,33.1881 27.6147,33.294L27.8034,33.2993L28.1966,33.2993C30.0855,33.2993 31.6748,31.7056 31.7873,29.6641L31.7936,29.4585L31.7936,19.142C31.7936,17.037 30.2614,15.3609 28.3853,15.2549L28.1966,15.2496ZM17.0206,29.5346C17.0206,29.0928 16.6624,28.7346 16.2206,28.7346L13.8,28.7346C13.3582,28.7346 13,29.0928 13,29.5346L13,29.8393L13.0033,30.1637C13.1725,38.4679 19.8219,45.1466 28,45.1466C36.2843,45.1466 43,38.2933 43,29.8393L43,29.5346C43,29.0928 42.6418,28.7346 42.2,28.7346L39.7794,28.7346C39.3376,28.7346 38.9794,29.0928 38.9794,29.5346L38.9794,29.8393L38.9757,30.133C38.823,36.1853 33.9675,41.0436 28,41.0436C21.9363,41.0436 17.0206,36.0273 17.0206,29.8393L17.0206,29.5346Z" fill="#000000" fill-opacity="0.55"/>
</svg>